<svg xmlns="http://www.w3.org/2000/svg" viewBox="0 0 557 439.47"><defs><style>.cls-1{fill:#363636;}</style></defs><g id="Layer_2" data-name="Layer 2"><g id="Layer_1-2" data-name="Layer 1"><path class="cls-1" d="M.85,0,0,.85V438.62l.85.85H67.28V413.92H26.4V25.55H67.28V0H.85M489.72,0V25.55H530.6V413.92H489.72v25.55h66.43l.85-.85V.85L556.15,0H489.72M346.63,65.07C253.89,77.42,172,154.41,136.52,238.47,119.41,279,112.59,339.22,156.71,365.29A69.74,69.74,0,0,0,178,373a108.84,108.84,0,0,0,31.51,1.53c29-2.73,55.87-13.8,80.91-28.11C347,314.19,396.54,260.87,420.9,200.15,437.42,159,445,97,397.74,73.07A74.56,74.56,0,0,0,376.44,66,102.74,102.74,0,0,0,346.63,65.07Z"/></g></g></svg>