<svg id="Layer_1" data-name="Layer 1" xmlns="http://www.w3.org/2000/svg" viewBox="0 0 558 530"><defs><style>.cls-1{fill:#332924;stroke:#000;stroke-miterlimit:10;}</style></defs><path class="cls-1" d="M49.85,63,49,64V591l.85,1h66.43V561.24H75.4V93.76h40.88V63H49.85m488.87,0V93.76H579.6V561.24H538.72V592h66.43l.85-1V64l-.85-1H538.72M395.63,172.83C302.89,185.18,221,262.18,185.52,346.24,168.41,386.78,161.59,447,205.71,473.05A69.48,69.48,0,0,0,227,480.8a108.49,108.49,0,0,0,31.51,1.54c29-2.73,55.87-13.8,80.91-28.11C396,422,445.54,368.64,469.9,307.91c16.52-41.13,24.1-103.14-23.16-127.07a74.58,74.58,0,0,0-21.3-7.07A103.09,103.09,0,0,0,395.63,172.83Z" transform="translate(-48.5 -62.5)"/></svg>