<?xml version="1.0" encoding="utf-8"?>
<!-- Generator: Adobe Illustrator 26.0.1, SVG Export Plug-In . SVG Version: 6.00 Build 0)  -->
<svg version="1.1" id="Layer_1" xmlns="http://www.w3.org/2000/svg" xmlns:xlink="http://www.w3.org/1999/xlink" x="0px" y="0px"
	 viewBox="0 0 655 655" style="enable-background:new 0 0 655 655;" xml:space="preserve">
<style type="text/css">
	.st0{fill:#FFFFFF;stroke:#000000;stroke-miterlimit:10;}
</style>
<path class="st0" d="M49.9,107.8l-0.9,0.9v437.8l0.9,0.9h66.4v-25.6H75.4V133.3h40.9v-25.6H49.9 M538.7,107.8v25.6h40.9v388.4h-40.9
	v25.6h66.4l0.9-0.9V108.6l-0.9-0.9H538.7 M395.6,172.8c-92.7,12.3-174.6,89.3-210.1,173.4c-17.1,40.5-23.9,100.8,20.2,126.8
	c6.4,3.7,14,6.3,21.3,7.8c10.1,2,21.2,2.6,31.5,1.5c29-2.7,55.9-13.8,80.9-28.1C396,422,445.5,368.6,469.9,307.9
	c16.5-41.1,24.1-103.1-23.2-127.1c-6.7-3.4-13.8-5.8-21.3-7.1C415.9,172.2,405.3,171.6,395.6,172.8z"/>
</svg>
